<mxfile host="65bd71144e">
    <diagram id="ybQ_8pB1HdUXT-jlIhgG" name="PÃ¡gina-1">
        <mxGraphModel dx="575" dy="461" grid="1" gridSize="10" guides="1" tooltips="1" connect="1" arrows="1" fold="1" page="1" pageScale="1" pageWidth="827" pageHeight="1169" math="0" shadow="0">
            <root>
                <mxCell id="0"/>
                <mxCell id="1" parent="0"/>
                <mxCell id="9" style="edgeStyle=none;html=1;fontColor=#000000;" edge="1" parent="1" source="2" target="3">
                    <mxGeometry relative="1" as="geometry"/>
                </mxCell>
                <mxCell id="2" value="Inicio&amp;nbsp;" style="ellipse;whiteSpace=wrap;html=1;fillColor=#2FAB52;" vertex="1" parent="1">
                    <mxGeometry x="220" y="10" width="120" height="80" as="geometry"/>
                </mxCell>
                <mxCell id="10" style="edgeStyle=none;html=1;fontColor=#000000;" edge="1" parent="1" source="3" target="4">
                    <mxGeometry relative="1" as="geometry"/>
                </mxCell>
                <mxCell id="3" value="h" style="shape=parallelogram;perimeter=parallelogramPerimeter;whiteSpace=wrap;html=1;fixedSize=1;fillColor=#80ac2f;" vertex="1" parent="1">
                    <mxGeometry x="220" y="130" width="120" height="60" as="geometry"/>
                </mxCell>
                <mxCell id="11" style="edgeStyle=none;html=1;fontColor=#000000;" edge="1" parent="1" source="4" target="6">
                    <mxGeometry relative="1" as="geometry"/>
                </mxCell>
                <mxCell id="4" value="&lt;font color=&quot;#000000&quot;&gt;q = h/5&lt;br&gt;n = 0&lt;/font&gt;" style="rounded=0;whiteSpace=wrap;html=1;fillColor=#CCCCFF;" vertex="1" parent="1">
                    <mxGeometry x="220" y="220" width="120" height="60" as="geometry"/>
                </mxCell>
                <mxCell id="13" style="edgeStyle=none;html=1;fontColor=#000000;" edge="1" parent="1" source="5" target="6">
                    <mxGeometry relative="1" as="geometry">
                        <mxPoint x="150" y="370" as="targetPoint"/>
                        <Array as="points">
                            <mxPoint x="280" y="590"/>
                            <mxPoint x="160" y="590"/>
                            <mxPoint x="160" y="340"/>
                        </Array>
                    </mxGeometry>
                </mxCell>
                <mxCell id="5" value="h = 0.9n&lt;br&gt;&lt;br&gt;n= n + 1" style="rounded=0;whiteSpace=wrap;html=1;fillColor=#9999FF;direction=south;" vertex="1" parent="1">
                    <mxGeometry x="212.5" y="410" width="135" height="60" as="geometry"/>
                </mxCell>
                <mxCell id="12" style="edgeStyle=none;html=1;fontColor=#000000;" edge="1" parent="1" source="6" target="5">
                    <mxGeometry relative="1" as="geometry"/>
                </mxCell>
                <mxCell id="14" style="edgeStyle=none;html=1;entryX=0.5;entryY=0;entryDx=0;entryDy=0;fontColor=#000000;" edge="1" parent="1" source="6" target="7">
                    <mxGeometry relative="1" as="geometry">
                        <Array as="points">
                            <mxPoint x="490" y="340"/>
                        </Array>
                    </mxGeometry>
                </mxCell>
                <mxCell id="6" value="&lt;font color=&quot;#000000&quot;&gt;h&amp;gt;=q&lt;/font&gt;" style="rhombus;whiteSpace=wrap;html=1;fillColor=#66FFFF;" vertex="1" parent="1">
                    <mxGeometry x="240" y="300" width="80" height="80" as="geometry"/>
                </mxCell>
                <mxCell id="15" style="edgeStyle=none;html=1;fontColor=#000000;" edge="1" parent="1" source="7" target="8">
                    <mxGeometry relative="1" as="geometry"/>
                </mxCell>
                <mxCell id="7" value="n" style="shape=document;whiteSpace=wrap;html=1;boundedLbl=1;fillColor=#2FAB52;" vertex="1" parent="1">
                    <mxGeometry x="430" y="370" width="120" height="80" as="geometry"/>
                </mxCell>
                <mxCell id="8" value="&lt;font color=&quot;#000000&quot;&gt;Fin&lt;/font&gt;" style="ellipse;whiteSpace=wrap;html=1;fillColor=#FFFF66;" vertex="1" parent="1">
                    <mxGeometry x="430" y="505" width="120" height="80" as="geometry"/>
                </mxCell>
            </root>
        </mxGraphModel>
    </diagram>
</mxfile>